<?xml version="1.0" encoding="UTF-8" standalone="no"?>
<!-- Created with Inkscape (http://www.inkscape.org/) -->

<svg
   xmlns:dc="http://purl.org/dc/elements/1.1/"
   xmlns:cc="http://creativecommons.org/ns#"
   xmlns:rdf="http://www.w3.org/1999/02/22-rdf-syntax-ns#"
   xmlns:svg="http://www.w3.org/2000/svg"
   xmlns="http://www.w3.org/2000/svg"
   xmlns:sodipodi="http://sodipodi.sourceforge.net/DTD/sodipodi-0.dtd"
   xmlns:inkscape="http://www.inkscape.org/namespaces/inkscape"
   id="svg4136"
   version="1.1"
   inkscape:version="0.91 r13725"
   width="32.128132"
   height="32.349072"
   viewBox="0 0 32.128132 32.349071"
   sodipodi:docname="blogs.svg">
  <metadata
     id="metadata4142">
    <rdf:RDF>
      <cc:Work
         rdf:about="">
        <dc:format>image/svg+xml</dc:format>
        <dc:type
           rdf:resource="http://purl.org/dc/dcmitype/StillImage" />
        <dc:title></dc:title>
      </cc:Work>
    </rdf:RDF>
  </metadata>
  <defs
     id="defs4140" />
  <sodipodi:namedview
     pagecolor="#ffffff"
     bordercolor="#666666"
     borderopacity="1"
     objecttolerance="10"
     gridtolerance="10"
     guidetolerance="10"
     inkscape:pageopacity="0"
     inkscape:pageshadow="2"
     inkscape:window-width="1858"
     inkscape:window-height="1058"
     id="namedview4138"
     showgrid="false"
     fit-margin-top="0"
     fit-margin-left="0"
     fit-margin-right="0"
     fit-margin-bottom="0"
     inkscape:zoom="3.532"
     inkscape:cx="41.534186"
     inkscape:cy="-38.755907"
     inkscape:window-x="54"
     inkscape:window-y="-8"
     inkscape:window-maximized="1"
     inkscape:current-layer="svg4136" />
  <path
     style="fill:#000000"
     d=""
     id="path4146"
     inkscape:connector-curvature="0" />
  <path
     style="fill:#777777"
     d="M 0,30.741649 C 0,29.816953 1.129554,28.038151 2.51012,26.788757 4.790742,24.724822 4.843,24.321283 3.08169,22.375057 -2.877139,15.790624 1.305362,4.5810869 10.97825,1.2114578 c 4.636827,-1.61527706 5.906675,-1.61527706 10.543502,0 9.907561,3.4513794 13.844775,14.5908942 7.597129,21.4944652 -3.014184,3.330637 -8.328941,5.966991 -12.02915,5.966991 -1.668931,0 -5.053798,0.84375 -7.521927,1.875 C 3.999265,32.874598 0,32.955578 0,30.741649 Z m 10.718251,-3.469618 c 0.373611,-0.604514 2.952345,-1.099117 5.730521,-1.099117 4.077868,0 5.870195,-0.818966 9.301229,-4.25 5.293794,-5.293793 5.4593,-9.357115 0.602536,-14.7927783 -3.227094,-3.6117451 -4.39141,-4.0822205 -10.102536,-4.0822205 -5.711127,0 -6.875443,0.4704754 -10.102537,4.0822205 -4.342747,4.8603783 -4.613939,8.7269573 -0.939701,13.3979953 2.212018,2.812125 2.440872,3.869723 1.25,5.776612 C 5.655994,27.588579 5,28.875213 5,29.163929 c 0,0.913719 5.008391,-0.74332 5.718251,-1.891898 z"
     id="path4182"
     inkscape:connector-curvature="0" />
</svg>
