<?xml version="1.0" encoding="UTF-8" standalone="no"?>
<!-- Created with Inkscape (http://www.inkscape.org/) -->

<svg
   xmlns:dc="http://purl.org/dc/elements/1.1/"
   xmlns:cc="http://creativecommons.org/ns#"
   xmlns:rdf="http://www.w3.org/1999/02/22-rdf-syntax-ns#"
   xmlns:svg="http://www.w3.org/2000/svg"
   xmlns="http://www.w3.org/2000/svg"
   xmlns:sodipodi="http://sodipodi.sourceforge.net/DTD/sodipodi-0.dtd"
   xmlns:inkscape="http://www.inkscape.org/namespaces/inkscape"
   id="svg4136"
   version="1.1"
   inkscape:version="0.91 r13725"
   width="21.264114"
   height="32.930782"
   viewBox="0 0 21.264115 32.930783"
   sodipodi:docname="explorers.svg">
  <metadata
     id="metadata4142">
    <rdf:RDF>
      <cc:Work
         rdf:about="">
        <dc:format>image/svg+xml</dc:format>
        <dc:type
           rdf:resource="http://purl.org/dc/dcmitype/StillImage" />
        <dc:title></dc:title>
      </cc:Work>
    </rdf:RDF>
  </metadata>
  <defs
     id="defs4140" />
  <sodipodi:namedview
     pagecolor="#ffffff"
     bordercolor="#666666"
     borderopacity="1"
     objecttolerance="10"
     gridtolerance="10"
     guidetolerance="10"
     inkscape:pageopacity="0"
     inkscape:pageshadow="2"
     inkscape:window-width="1858"
     inkscape:window-height="1058"
     id="namedview4138"
     showgrid="false"
     fit-margin-top="0"
     fit-margin-left="0"
     fit-margin-right="0"
     fit-margin-bottom="0"
     inkscape:zoom="3.532"
     inkscape:cx="35.462175"
     inkscape:cy="-36.455942"
     inkscape:window-x="54"
     inkscape:window-y="-8"
     inkscape:window-maximized="1"
     inkscape:current-layer="svg4136" />
  <path
     style="fill:#000000"
     d=""
     id="path4146"
     inkscape:connector-curvature="0" />
  <path
     style="fill:#767676"
     d="m 2.8029193,30.430782 c 2.7139309,-7.864585 3.4579489,-9.305644 4.4787639,-8.674745 1.992454,1.231403 1.212991,4.068443 -2.106617,7.66754 -2.5133049,2.724907 -3.0424229,2.949568 -2.3721469,1.007205 z M 12.159919,28.56168 c 0,-2.80321 -1.041908,-5.331618 -3.0689078,-7.447351 C 6.2699522,18.169778 6.1308042,17.482832 7.3680592,12.60843 8.8274052,6.8590595 10.48601,6.1513626 15.224582,9.2561944 17.946094,11.039396 18.302565,11.025635 19.382625,9.0956741 21.312634,5.6469395 21.665589,8.503615 20.860349,21.055782 l -0.7618,11.875 -0.222165,-10 -0.222167,-10 -3.747148,-0.133102 c -3.084385,-0.109558 -3.74715,0.360822 -3.74715,2.659444 0,1.5359 0.886737,3.528473 1.970527,4.427938 1.451635,1.204751 1.755179,2.808555 1.15273,6.090556 -1.141535,6.218811 -3.123257,7.85968 -3.123257,2.586062 z M 0.25402933,14.7558 C -0.85241567,12.965535 1.8632953,7.6870793 4.3895723,6.7176558 7.1009582,5.6771995 7.4377052,6.5096186 6.2147142,11.229296 5.1132972,15.479803 1.8827303,17.391095 0.25402933,14.7558 Z M 10.11516,4.1891435 C 9.6822012,3.0608708 9.9273432,1.5383581 10.659919,0.80578214 12.56443,-1.098729 16.172931,0.64192164 15.675447,3.2251475 15.12132,6.1024999 11.115863,6.7969325 10.11516,4.1891435 Z"
     id="path4234"
     inkscape:connector-curvature="0" />
</svg>
