<?xml version="1.0" encoding="UTF-8" standalone="no"?>
<!-- Created with Inkscape (http://www.inkscape.org/) -->

<svg
   xmlns:dc="http://purl.org/dc/elements/1.1/"
   xmlns:cc="http://creativecommons.org/ns#"
   xmlns:rdf="http://www.w3.org/1999/02/22-rdf-syntax-ns#"
   xmlns:svg="http://www.w3.org/2000/svg"
   xmlns="http://www.w3.org/2000/svg"
   xmlns:sodipodi="http://sodipodi.sourceforge.net/DTD/sodipodi-0.dtd"
   xmlns:inkscape="http://www.inkscape.org/namespaces/inkscape"
   id="svg4136"
   version="1.1"
   inkscape:version="0.91 r13725"
   width="32.500027"
   height="25.821428"
   viewBox="0 0 32.500027 25.821429"
   sodipodi:docname="trips.svg">
  <metadata
     id="metadata4142">
    <rdf:RDF>
      <cc:Work
         rdf:about="">
        <dc:format>image/svg+xml</dc:format>
        <dc:type
           rdf:resource="http://purl.org/dc/dcmitype/StillImage" />
        <dc:title></dc:title>
      </cc:Work>
    </rdf:RDF>
  </metadata>
  <defs
     id="defs4140" />
  <sodipodi:namedview
     pagecolor="#ffffff"
     bordercolor="#666666"
     borderopacity="1"
     objecttolerance="10"
     gridtolerance="10"
     guidetolerance="10"
     inkscape:pageopacity="0"
     inkscape:pageshadow="2"
     inkscape:window-width="1858"
     inkscape:window-height="1058"
     id="namedview4138"
     showgrid="false"
     fit-margin-top="0"
     fit-margin-left="0"
     fit-margin-right="0"
     fit-margin-bottom="0"
     inkscape:zoom="3.532"
     inkscape:cx="0.63462139"
     inkscape:cy="37.279548"
     inkscape:window-x="54"
     inkscape:window-y="-8"
     inkscape:window-maximized="1"
     inkscape:current-layer="svg4136" />
  <path
     style="fill:#000000"
     d=""
     id="path4146"
     inkscape:connector-curvature="0" />
  <path
     style="fill:#767676"
     d="M 0,24.785714 C 0,24.216071 7.3124998,23.75 16.25,23.75 c 8.9375,0 16.25,0.466071 16.25,1.035714 0,0.569643 -7.3125,1.035715 -16.25,1.035715 C 7.3124998,25.821429 0,25.355357 0,24.785714 Z m 0,-3.75 C 0,20.466071 0.675,20 1.4999998,20 c 1.166667,0 1.166667,-0.333334 0,-1.5 -1.8164208,-1.816421 -1.9907368,-6 -0.25,-6 0.6875,0 1.25,-1.96875 1.25,-4.375 0,-2.40625 0.5625,-4.375 1.25,-4.375 0.6875,0 1.25,-0.84375 1.25,-1.875 0,-1.03125 0.5625,-1.875 1.25,-1.875 0.6875,0 1.25,0.84375 1.25,1.875 0,1.03125 0.869239,1.875 1.931641,1.875 1.5305912,0 1.7612352,0.908344 1.1108872,4.375 l -0.8207552,4.375 4.9453802,0 c 3.357888,0 5.671641,-0.802512 7.207847,-2.5 2.552261,-2.820217 10.62809,-3.533103 10.620328,-0.9375 -0.0026,0.859375 -1.127571,3.40422 -2.5,5.655213 C 26.910155,19.777859 26.910351,20 30.000028,20 c 1.375,0 2.5,0.466071 2.5,1.035714 0,0.569643 -7.3125,1.035715 -16.25,1.035715 -8.9375002,0 -16.25,-0.466072 -16.25,-1.035715 z"
     id="path4286"
     inkscape:connector-curvature="0" />
</svg>
