<svg width="14" height="14" viewBox="0 0 14 14" fill="none" xmlns="http://www.w3.org/2000/svg">
    <path d="M1.75 3.5H2.91667H12.25" stroke="#643EFA" stroke-linecap="round" stroke-linejoin="round"/>
    <path d="M4.66668 3.50033V2.33366C4.66668 2.02424 4.7896 1.72749 5.00839 1.5087C5.22718 1.28991 5.52393 1.16699 5.83335 1.16699H8.16668C8.4761 1.16699 8.77285 1.28991 8.99164 1.5087C9.21043 1.72749 9.33335 2.02424 9.33335 2.33366V3.50033M11.0833 3.50033V11.667C11.0833 11.9764 10.9604 12.2732 10.7416 12.492C10.5228 12.7107 10.2261 12.8337 9.91668 12.8337H4.08335C3.77393 12.8337 3.47718 12.7107 3.25839 12.492C3.0396 12.2732 2.91668 11.9764 2.91668 11.667V3.50033H11.0833Z" stroke="#643EFA" stroke-linecap="round" stroke-linejoin="round"/>
</svg>
