<svg width="16" height="16" viewBox="0 0 16 16" fill="none" xmlns="http://www.w3.org/2000/svg">
        <path d="M6.66663 8.66697C6.95293 9.04972 7.3182 9.36642 7.73766 9.5956C8.15712 9.82477 8.62096 9.96105 9.09773 9.99519C9.57449 10.0293 10.053 9.96055 10.5009 9.79349C10.9487 9.62643 11.3554 9.36502 11.6933 9.02697L13.6933 7.02697C14.3005 6.3983 14.6365 5.55629 14.6289 4.6823C14.6213 3.80831 14.2707 2.97227 13.6527 2.35424C13.0347 1.73621 12.1986 1.38565 11.3246 1.37806C10.4506 1.37046 9.60863 1.70644 8.97996 2.31364L7.83329 3.45364" stroke="#2C3367" stroke-width="1.5" stroke-linecap="round" stroke-linejoin="round"/>
        <path d="M9.33322 7.33381C9.04692 6.95106 8.68165 6.63435 8.26219 6.40518C7.84273 6.17601 7.37888 6.03973 6.90212 6.00559C6.42536 5.97144 5.94683 6.04023 5.49899 6.20729C5.05115 6.37435 4.64448 6.63576 4.30656 6.97381L2.30656 8.97381C1.69936 9.60248 1.36338 10.4445 1.37098 11.3185C1.37857 12.1925 1.72913 13.0285 2.34716 13.6465C2.96519 14.2646 3.80123 14.6151 4.67522 14.6227C5.54921 14.6303 6.39121 14.2943 7.01989 13.6871L8.15989 12.5471" stroke="#2C3367" stroke-width="1.5" stroke-linecap="round" stroke-linejoin="round"/>
</svg>
