<svg width="14" height="14" viewBox="0 0 14 14" fill="none" xmlns="http://www.w3.org/2000/svg">

        <path d="M5.83337 7.58299C6.08389 7.9179 6.4035 8.19501 6.77053 8.39554C7.13756 8.59606 7.54342 8.71531 7.96059 8.74518C8.37775 8.77506 8.79647 8.71487 9.18833 8.56869C9.58018 8.42252 9.93602 8.19378 10.2317 7.89799L11.9817 6.14799C12.513 5.5979 12.807 4.86114 12.8003 4.0964C12.7937 3.33166 12.487 2.60012 11.9462 2.05935C11.4054 1.51858 10.6739 1.21183 9.90913 1.20519C9.14439 1.19854 8.40763 1.49253 7.85754 2.02382L6.85421 3.02132" stroke="#2C3367" stroke-width="1.2" stroke-linecap="round" stroke-linejoin="round"/>
        <path d="M8.16654 6.41574C7.91602 6.08083 7.59641 5.80372 7.22938 5.60319C6.86235 5.40267 6.45649 5.28342 6.03933 5.25355C5.62216 5.22367 5.20345 5.28386 4.81159 5.43003C4.41973 5.57621 4.06389 5.80495 3.76821 6.10074L2.01821 7.85074C1.48691 8.40083 1.19293 9.13759 1.19957 9.90233C1.20622 10.6671 1.51296 11.3986 2.05373 11.9394C2.59451 12.4802 3.32604 12.7869 4.09079 12.7935C4.85553 12.8002 5.59228 12.5062 6.14237 11.9749L7.13987 10.9774" stroke="#2C3367" stroke-width="1.2" stroke-linecap="round" stroke-linejoin="round"/>

</svg>
