<?xml version="1.0" encoding="UTF-8"?>
<svg width="14px" height="14px" viewBox="0 0 230 390" version="1.1" xmlns="http://www.w3.org/2000/svg" xmlns:xlink="http://www.w3.org/1999/xlink">
    <!-- Generator: Sketch 62 (91390) - https://sketch.com -->
    <g id="Page-1" stroke="none" stroke-width="1" fill="none" fill-rule="evenodd">
        <g id="MIRI_Final-02" transform="translate(-331.000000, 0.000000)" fill="rgba(255, 255, 255, 0.4)">
            <path d="M446.107378,0.482 C452.760378,0.482 458.154378,5.876 458.154378,12.53 C458.154378,18.7955895 453.368845,23.9450869 447.253228,24.5222066 L447.894258,65.8095762 L468.29142,65.9529147 C474.117276,66.01785 478.253778,66.1325193 482.918037,66.4299172 L485.565808,66.6086114 C492.990514,67.0939416 502.654053,67.4007209 513.430378,70.224 L515.771193,70.8399149 C524.850988,73.2479822 530.59984,75.0865385 535.561378,79.869 C541.853167,85.9336923 543.589803,93.5593898 544.958217,101.168046 L545.206378,102.565 C548.784378,122.89 551.721378,140.601 554.284378,157.034 L555.257172,163.999226 C557.738455,182.072288 561.926078,215.10055 560.264378,222.7 L560.202031,222.978105 C560.077133,223.523878 559.957378,223.986 559.957378,223.986 C557.900378,231.546 553.532378,236.908 552.013378,238.736 L551.630608,239.216141 C550.028349,241.191438 547.56707,243.797923 544.071378,246.113 C537.138957,250.701772 530.050904,251.554546 526.575383,251.835123 L523.084438,252.091731 L523.084438,252.091731 C526.028351,253.791866 529.295211,256.370838 531.931985,260.24608 L532.299127,260.800899 C533.404126,262.526195 539.7319,273.051283 534.895378,284.764 C532.444314,290.698797 528.187017,294.370679 524.846152,296.48464 C526.532323,313.777371 526.945486,332.092607 524.450378,348.492 C523.94346,351.828227 523.088177,355.56038 520.963653,359.30205 L520.932196,360.000742 C520.592882,366.374282 518.693817,374.995793 511.823378,381.361 C504.97708,387.704263 496.708558,388.552296 489.031586,388.98013 L485.36304,389.168169 C477.884205,389.505986 466.751212,389.481083 462.272378,382.497 C460.108944,379.126102 459.867453,374.713832 460.051082,371.135961 L456.741428,371.052873 C452.25228,370.948972 447.456009,370.875352 442.328378,370.865 C437.033628,370.854116 432.072949,370.912505 427.42377,370.995817 C427.621076,374.597583 427.402096,379.081764 425.212378,382.497 C420.393253,390.010181 407.874545,389.469819 400.485503,389.088015 L398.449549,388.98013 C390.774073,388.552296 382.504817,387.704263 375.660378,381.361 C368.557916,374.78196 366.767939,365.792475 366.522117,359.366531 C364.871769,356.89737 363.872664,354.513001 363.178378,352.141 C358.773131,337.096999 359.100414,316.211215 361.075413,296.500331 C358.056273,294.302953 354.677207,290.913874 352.584378,285.901 C347.594378,273.945 354.277378,263.188 355.157378,261.828 C358.440271,256.741404 362.818027,253.788486 366.302952,252.107781 L365.734749,252.054307 C361.376377,251.622693 352.913284,250.296267 347.573378,246.322 L347.076794,245.946077 C343.543318,243.226742 340.580791,240.009625 339.82054,239.162131 L339.630378,238.947 L339.068812,238.261911 C337.269493,236.03002 333.701037,231.19912 331.818902,224.665566 L331.651506,224.055539 C331.595297,223.833776 331.482235,223.379286 331.379378,222.91 C329.469378,214.175 335.287378,171.844 337.360378,157.243 L338.008864,153.107581 C340.270573,138.766254 342.827403,123.393977 345.847926,106.137683 L346.686395,101.377209 C348.054177,93.7693898 349.79259,86.1436923 356.084378,80.079 C361.459378,74.898 367.755378,73.172 378.213378,70.434 C388.989704,67.6116744 398.653242,67.3031211 406.077949,66.8184907 L408.695891,66.6416852 C413.069467,66.3618798 416.97518,66.2432012 422.237828,66.1758881 L444.136,66.016 L444.621794,24.4852941 C438.669604,23.7532047 434.060378,18.6790891 434.060378,12.53 C434.060378,5.876 439.454378,0.482 446.107378,0.482 Z M368.103542,114.999955 L367.696222,115.332885 C367.528298,115.474268 367.364829,115.616944 367.204378,115.761 C362.254635,120.203103 360.142574,125.635404 358.834975,131.437207 L358.112615,134.761508 C355.250094,148.020889 352.864245,159.7168 350.762378,170.62 L350.055765,174.702989 C347.900313,187.331684 344.016958,211.7771 345.510378,217.304 L345.678977,217.88832 C345.738535,218.085008 345.781378,218.218 345.781378,218.218 C346.970342,221.057821 348.966414,224.794945 352.371237,228.31485 L352.865654,228.812702 C353.430464,229.358018 356.103893,231.8644 359.470097,233.800256 L359.730378,233.948 C359.884411,234.034347 360.046464,234.119395 360.216336,234.203165 L360.556009,234.364246 L360.556009,234.364246 L360.863971,234.500063 L360.863971,234.500063 L361.411334,234.723156 L361.411334,234.723156 L361.930503,234.915849 L361.930503,234.915849 C362.123771,234.984562 362.323076,235.052403 362.528165,235.119302 L363.19104,235.326262 L363.19104,235.326262 L363.558925,235.433833 L363.558925,235.433833 C363.794705,235.501252 364.036253,235.56751 364.283621,235.632686 L364.988988,235.811796 L364.988988,235.811796 L365.644784,235.967332 L365.644784,235.967332 L366.714236,236.201444 L366.714236,236.201444 L367.561723,236.372448 L367.561723,236.372448 L368.909713,236.62166 L368.909713,236.62166 L369.676907,236.752726 L370.379973,236.866775 L370.379973,236.866775 L371.27563,237.004258 L371.27563,237.004258 L372.065486,237.119333 L373.640584,237.332118 L373.640584,237.332118 L374.719217,237.46679 L374.719217,237.46679 L375.438724,237.55226 L375.438724,237.55226 L376.870288,237.712155 L376.870288,237.712155 L378.688119,237.898193 L380.108198,238.031127 L380.108198,238.031127 L381.558061,238.158409 L383.032826,238.278229 L383.032826,238.278229 L384.531606,238.391428 L386.052516,238.498184 L389.153189,238.693076 L392.319763,238.864329 L395.114238,238.995096 L395.114238,238.995096 L397.924751,239.109349 L397.924751,239.109349 L401.408408,239.230186 L401.408408,239.230186 L404.522935,239.320059 L406.775919,239.37566 L406.775919,239.37566 L410.539207,239.45263 L410.539207,239.45263 L413.291152,239.496703 L413.291152,239.496703 L416.650148,239.538519 L416.650148,239.538519 L420.746902,239.573255 L420.746902,239.573255 L423.94322,239.588287 C424.991168,239.591692 426.020624,239.594238 427.028586,239.594238 L433.249453,239.584015 L433.249453,239.584015 L446.045378,239.516 L449.089782,239.522856 L449.089782,239.522856 L459.202423,239.561096 L459.202423,239.561096 L462.975797,239.562277 L465.8999,239.555908 C468.326079,239.547752 470.869408,239.53182 473.48919,239.50437 L476.132948,239.472943 L479.782262,239.416071 C501.108924,239.039611 525.181103,237.771335 532.267378,233.799 C536.194378,231.598 539.244378,228.555 539.244378,228.555 C542.755342,225.05175 544.833413,221.291862 546.082923,218.386271 L546.218378,218.067 C546.218378,218.067 546.363378,217.621 546.489378,217.153 C547.789565,212.344089 545.018012,193.212727 542.856047,180.004577 L541.872027,174.130822 L541.237378,170.469 L541.237378,170.469 L540.552301,166.936152 C538.466128,156.25002 536.095078,144.75 533.266378,131.745 L533.106123,131.012609 C532.271549,127.227101 531.307741,123.426811 528.953309,119.996239 L528.722243,119.666416 L528.481054,119.337978 L528.22955,119.011003 L527.970854,118.688569 L527.837322,118.527829 L527.837322,118.527829 L527.653,118.313 L527.420791,118.048632 L527.132187,117.734285 C526.935611,117.524995 526.732063,117.317605 526.521203,117.112218 L526.198367,116.804654 C525.761868,116.39794 525.295442,115.999447 524.796378,115.61 C524.498462,115.377917 524.189434,115.141667 523.850053,114.897271 L523.35764,114.552457 L522.900176,114.24955 C522.820511,114.198214 522.739038,114.146432 522.655612,114.094174 L522.193378,113.812 C512.84495,108.2482 499.662352,107.137299 494.391012,106.818961 L489.055312,106.528973 C487.994843,106.475549 486.817256,106.419431 485.527099,106.363547 L482.589126,106.24528 C481.927764,106.220483 481.243615,106.196263 480.537116,106.172828 L478.262568,106.102574 L478.262568,106.102574 L475.516515,106.031379 L475.516515,106.031379 L473.191476,105.982547 L473.191476,105.982547 L471.568275,105.954928 L471.568275,105.954928 L468.847571,105.918887 L468.847571,105.918887 L465.541,105.893 L464.580674,105.889896 L464.580674,105.889896 L458.657792,105.921893 L458.657792,105.921893 L425.242,106.161 L421.840863,106.228386 L421.840863,106.228386 L419.548985,106.284304 L419.548985,106.284304 L418.630943,106.3095 C417.351499,106.345968 416.118857,106.385803 414.931164,106.428752 L412.679958,106.515821 L412.679958,106.515821 L411.312963,106.574759 L411.312963,106.574759 L409.470125,106.66186 L409.470125,106.66186 L408.136087,106.730804 L408.136087,106.730804 L406.034297,106.84994 L406.034297,106.84994 L403.968098,106.980913 C394.820444,107.593138 389.700978,108.380284 386.633378,108.903 L385.511392,109.098196 C381.117985,109.878472 377.848733,110.65331 375.33332,111.445393 L374.775598,111.625733 L374.775598,111.625733 C374.522086,111.709304 374.276653,111.793259 374.038862,111.877509 L373.411977,112.10715 L373.411977,112.10715 L373.068412,112.239032 L373.068412,112.239032 L372.600515,112.427503 L372.600515,112.427503 L372.466026,112.483533 C371.939786,112.704035 371.457967,112.926648 371.012621,113.151717 L370.743087,113.290915 L370.743087,113.290915 C370.549745,113.392156 370.363278,113.494177 370.183133,113.596843 L369.816119,113.812488 L369.816119,113.812488 C369.174239,114.199241 368.615217,114.594403 368.103542,114.999955 L368.103542,114.999955 Z M464.10397,203.831259 C465.203113,215.07499 456.193679,224.918529 445.556721,224.575888 C435.697627,224.259931 427.63866,215.259803 428.127638,204.838533 L428.146385,204.50188 L434.418371,204.90612 C433.963531,211.963183 439.380027,218.089715 445.758553,218.294129 C452.479991,218.510643 458.423755,212.116073 457.874244,204.738361 L457.848787,204.442741 L464.10397,203.831259 Z M490.497378,153.272 C503.345378,153.272 513.760378,163.687 513.760378,176.535 C513.760378,189.383 503.345378,199.798 490.497378,199.798 C477.649378,199.798 467.234378,189.383 467.234378,176.535 C467.234378,163.687 477.649378,153.272 490.497378,153.272 Z M398.355378,153.272 C411.203378,153.272 421.618378,163.687 421.618378,176.535 C421.618378,189.383 411.203378,199.798 398.355378,199.798 C385.507378,199.798 375.093378,189.383 375.093378,176.535 C375.093378,163.687 385.507378,153.272 398.355378,153.272 Z" id="MIRI"></path>
        </g>
    </g>
</svg>