<svg width="14" height="14" viewBox="0 0 14 14" fill="none" xmlns="http://www.w3.org/2000/svg">
        <path d="M5.83268 1.16699L10.4993 1.16699C10.8088 1.16699 11.1055 1.28991 11.3243 1.5087C11.5431 1.72749 11.666 2.02424 11.666 2.33366L11.666 11.667C11.666 11.9764 11.5431 12.2732 11.3243 12.492C11.1055 12.7107 10.8088 12.8337 10.4993 12.8337L3.49935 12.8337C3.18993 12.8337 2.89318 12.7107 2.67439 12.492C2.4556 12.2732 2.33268 11.9764 2.33268 11.667L2.33268 4.66699L5.83268 1.16699Z" stroke="#2C3367" stroke-linecap="round" stroke-linejoin="round"/>
        <path d="M5.83398 1.16699V4.66699H2.33398" stroke="#2C3367" stroke-linecap="round" stroke-linejoin="round"/>
        <path d="M4.66732 7.58301L9.33398 7.58301" stroke="#2C3367" stroke-linecap="round" stroke-linejoin="round"/>
        <path d="M4.66732 9.91699H9.33398" stroke="#2C3367" stroke-linecap="round" stroke-linejoin="round"/>
        <path d="M8.16732 5.25H8.75065H9.33398" stroke="#2C3367" stroke-linecap="round" stroke-linejoin="round"/>
</svg>
