<svg width="14" height="14" viewBox="0 0 14 14" fill="none" xmlns="http://www.w3.org/2000/svg">
    <path d="M12.3725 9.26872C12.0014 10.1463 11.421 10.9197 10.682 11.5211C9.94294 12.1226 9.06783 12.5339 8.13313 12.719C7.19844 12.9041 6.23262 12.8575 5.32013 12.5831C4.40763 12.3087 3.57624 11.815 2.89864 11.1451C2.22103 10.4752 1.71785 9.6495 1.43308 8.74019C1.14831 7.83089 1.09062 6.86567 1.26506 5.92893C1.4395 4.99218 1.84075 4.11242 2.43374 3.36657C3.02672 2.62073 3.79339 2.03149 4.66671 1.65039" stroke="#643EFA" stroke-width="1.2" stroke-linecap="round" stroke-linejoin="round"/>
    <path d="M12.8333 6.99935C12.8333 6.2333 12.6825 5.47476 12.3893 4.76703C12.0961 4.0593 11.6665 3.41623 11.1248 2.87456C10.5831 2.33288 9.94005 1.9032 9.23232 1.61005C8.52459 1.3169 7.76604 1.16602 7 1.16602V6.99935H12.8333Z" stroke="#643EFA" stroke-width="1.2" stroke-linecap="round" stroke-linejoin="round"/>
</svg>
