<svg width="12" height="12" viewBox="0 0 12 12" fill="none" xmlns="http://www.w3.org/2000/svg">
        <path fill-rule="evenodd" clip-rule="evenodd" d="M6.25 10.25C6.52614 10.25 6.75 10.0261 6.75 9.75L6.75 2.25C6.75 1.97386 6.52614 1.75 6.25 1.75H5.75C5.47386 1.75 5.25 1.97386 5.25 2.25L5.25 9.75C5.25 10.0261 5.47386 10.25 5.75 10.25H6.25Z" fill="white"/>
        <path fill-rule="evenodd" clip-rule="evenodd" d="M1.74995 6.25C1.74995 6.52614 1.97381 6.75 2.24995 6.75L9.74995 6.75C10.0261 6.75 10.25 6.52614 10.25 6.25V5.75C10.25 5.47386 10.0261 5.25 9.74995 5.25L2.24995 5.25C1.97381 5.25 1.74995 5.47386 1.74995 5.75L1.74995 6.25Z" fill="white"/>
</svg>
