<svg width="12" height="12" viewBox="0 0 12 12" fill="none" xmlns="http://www.w3.org/2000/svg">

        <path d="M10.0001 3.5H2.00009C1.44781 3.5 1.00009 3.94772 1.00009 4.5V9.5C1.00009 10.0523 1.44781 10.5 2.00009 10.5H10.0001C10.5524 10.5 11.0001 10.0523 11.0001 9.5V4.5C11.0001 3.94772 10.5524 3.5 10.0001 3.5Z" stroke="white" stroke-linecap="round" stroke-linejoin="round"/>
        <path d="M8.00009 10.5V2.5C8.00009 2.23478 7.89474 1.98043 7.7072 1.79289C7.51966 1.60536 7.26531 1.5 7.00009 1.5H5.00009C4.73488 1.5 4.48052 1.60536 4.29299 1.79289C4.10545 1.98043 4.00009 2.23478 4.00009 2.5V10.5" stroke="white" stroke-linecap="round" stroke-linejoin="round"/>
</svg>
