<svg width="14" height="14" viewBox="0 0 14 14" fill="none" xmlns="http://www.w3.org/2000/svg">
        <path d="M0.583344 2.33398L0.583344 5.83398H4.08334" stroke="#643EFA" stroke-width="1.2" stroke-linecap="round" stroke-linejoin="round"/>
        <path d="M13.4167 11.666V8.16602H9.91666" stroke="#643EFA" stroke-width="1.2" stroke-linecap="round" stroke-linejoin="round"/>
        <path d="M11.9525 5.25057C11.6566 4.41453 11.1538 3.66706 10.491 3.0779C9.82811 2.48874 9.0268 2.0771 8.16182 1.88139C7.29684 1.68568 6.39638 1.71227 5.54446 1.95869C4.69254 2.20511 3.91693 2.66332 3.28999 3.29057L0.583324 5.83391M13.4167 8.16724L10.71 10.7106C10.0831 11.3378 9.30744 11.796 8.45552 12.0425C7.6036 12.2889 6.70314 12.3155 5.83816 12.1198C4.97318 11.924 4.17187 11.5124 3.50901 10.9232C2.84615 10.3341 2.34334 9.58662 2.04749 8.75057" stroke="#643EFA" stroke-width="1.2" stroke-linecap="round" stroke-linejoin="round"/>
</svg>
