<svg width="14" height="14" viewBox="0 0 14 14" fill="none" xmlns="http://www.w3.org/2000/svg">

        <path d="M8.16671 1.16699H3.50004C3.19062 1.16699 2.89388 1.28991 2.67508 1.5087C2.45629 1.72749 2.33337 2.02424 2.33337 2.33366V11.667C2.33337 11.9764 2.45629 12.2732 2.67508 12.492C2.89388 12.7107 3.19062 12.8337 3.50004 12.8337H10.5C10.8095 12.8337 11.1062 12.7107 11.325 12.492C11.5438 12.2732 11.6667 11.9764 11.6667 11.667V4.66699L8.16671 1.16699Z" stroke="#2C3367" stroke-width="1.2" stroke-linecap="round" stroke-linejoin="round"/>
        <path d="M8.16663 1.16699V4.66699H11.6666" stroke="#2C3367" stroke-width="1.2" stroke-linecap="round" stroke-linejoin="round"/>
        <path d="M9.33329 7.58301H4.66663" stroke="#2C3367" stroke-width="1.2" stroke-linecap="round" stroke-linejoin="round"/>
        <path d="M9.33329 9.91699H4.66663" stroke="#2C3367" stroke-width="1.2" stroke-linecap="round" stroke-linejoin="round"/>
        <path d="M5.83329 5.25H5.24996H4.66663" stroke="#2C3367" stroke-width="1.2" stroke-linecap="round" stroke-linejoin="round"/>

</svg>
