<svg width="14" height="14" viewBox="0 0 18 14" fill="none" xmlns="http://www.w3.org/2000/svg">

        <path d="M10.2006 12.5996V11.044C10.2006 10.8722 10.3797 10.7329 10.6006 10.7329H13.8941L11.8576 8.09296C11.7632 7.97055 11.788 7.81386 11.9178 7.71291L12.4725 7.28148L10.2806 5.00845C10.1612 4.88459 10.177 4.71128 10.3178 4.6018L10.8969 4.15134L9.00062 1.69315L7.1043 4.15134L7.68346 4.6018C7.82422 4.71128 7.84005 4.88459 7.72062 5.00845L5.52877 7.28148L6.08346 7.71291C6.21325 7.81386 6.23805 7.97055 6.14361 8.09296L4.10709 10.7329H7.40062C7.62153 10.7329 7.80062 10.8722 7.80062 11.044V12.5996H10.2006ZM11.0006 11.3551V12.9107C11.0006 13.0825 10.8215 13.2218 10.6006 13.2218H7.40062C7.1797 13.2218 7.00062 13.0825 7.00062 12.9107V11.3551H3.40062C3.0897 11.3551 2.89765 11.0913 3.05762 10.8839L5.29694 7.98113L4.71777 7.53067C4.57702 7.42119 4.56118 7.24787 4.68062 7.12401L6.87247 4.85098L6.31777 4.41955C6.18799 4.31861 6.16319 4.16192 6.25762 4.0395L8.65762 0.92839C8.81298 0.726995 9.18825 0.726995 9.34361 0.92839L11.7436 4.0395C11.838 4.16192 11.8132 4.31861 11.6835 4.41955L11.1288 4.85098L13.3206 7.12401C13.4401 7.24787 13.4242 7.42119 13.2835 7.53067L12.7043 7.98113L14.9436 10.8839C15.1036 11.0913 14.9115 11.3551 14.6006 11.3551H11.0006Z" stroke="#2C3367" stroke-width="0.6"/>

</svg>
