<?xml version="1.0" encoding="UTF-8" standalone="no"?>
<!-- Created with Inkscape (http://www.inkscape.org/) -->

<svg
   xmlns:dc="http://purl.org/dc/elements/1.1/"
   xmlns:cc="http://creativecommons.org/ns#"
   xmlns:rdf="http://www.w3.org/1999/02/22-rdf-syntax-ns#"
   xmlns:svg="http://www.w3.org/2000/svg"
   xmlns="http://www.w3.org/2000/svg"
   xmlns:sodipodi="http://sodipodi.sourceforge.net/DTD/sodipodi-0.dtd"
   xmlns:inkscape="http://www.inkscape.org/namespaces/inkscape"
   id="svg4136"
   version="1.1"
   inkscape:version="0.91 r13725"
   width="32.5"
   height="31.25"
   viewBox="0 0 32.5 31.25"
   sodipodi:docname="adventure.svg">
  <metadata
     id="metadata4142">
    <rdf:RDF>
      <cc:Work
         rdf:about="">
        <dc:format>image/svg+xml</dc:format>
        <dc:type
           rdf:resource="http://purl.org/dc/dcmitype/StillImage" />
        <dc:title></dc:title>
      </cc:Work>
    </rdf:RDF>
  </metadata>
  <defs
     id="defs4140" />
  <sodipodi:namedview
     pagecolor="#ffffff"
     bordercolor="#666666"
     borderopacity="1"
     objecttolerance="10"
     gridtolerance="10"
     guidetolerance="10"
     inkscape:pageopacity="0"
     inkscape:pageshadow="2"
     inkscape:window-width="1858"
     inkscape:window-height="1058"
     id="namedview4138"
     showgrid="false"
     fit-margin-top="0"
     fit-margin-left="0"
     fit-margin-right="0"
     fit-margin-bottom="0"
     inkscape:zoom="3.6791667"
     inkscape:cx="15.805674"
     inkscape:cy="-35.606"
     inkscape:window-x="54"
     inkscape:window-y="-8"
     inkscape:window-maximized="1"
     inkscape:current-layer="svg4136" />
  <g
     id="g4932"
     transform="translate(4.834374,4.9242678)">
    <path
       style="fill:#efefef"
       d="m -4.834374,23.098783 0,-3.22695 4.6875,2.81902 c 2.578125,1.550462 4.921875,3.002588 5.2083334,3.226949 0.2864582,0.224361 -1.8229168,0.40793 -4.68750002,0.40793 -4.76610158,0 -5.20833338,-0.273995 -5.20833338,-3.226949 z M 13.89071,24.13629 c 4.276216,-2.148447 10.024916,-9.171347 10.024916,-12.246942 0,-0.861672 -2.029884,-2.764337 -4.510853,-4.2281445 -3.627798,-2.1404533 -4.365247,-3.2046099 -3.767068,-5.4359695 0.409081,-1.52597605 0.751465,-3.7588768 0.760852,-4.9620018 0.01371,-1.7567306 1.124762,-2.1875 5.642069,-2.1875 5.028697,0 5.625,0.3033748 5.625,2.8617759 0,2.30054972 -0.674133,2.85211235 -3.4375,2.81249997 -2.846474,-0.0408036 -3.4375,0.48802093 -3.4375,3.07572413 0,2.5877032 0.591026,3.1165278 3.4375,3.0757241 l 3.4375,-0.049276 0,9.7367757 0,9.736776 -9.0625,-0.002 -9.0625,-0.002 4.350084,-2.185557 z m -14.03121188,-3.868119 -4.68112802,-2.067439 -0.00637,-11.5624998 -0.00637,-11.5625 9.8265862,0 9.8265867,0 -1.288612,5.63124512 c -1.16537,5.09267448 -1.018992,5.91824258 1.53051,8.63206368 2.331829,2.482117 2.576943,3.453337 1.418046,5.618755 C 14.500172,18.65479 8.526771,18.359787 3.2072236,14.302371 0.84684487,12.502022 -1.084374,11.547928 -1.084374,12.182162 c 0,1.464686 7.5136708,8.615015 10,9.516426 1.0693075,0.387674 0.5321788,0.67059 -1.25,0.658398 -1.71875,-0.01175 -5.2315076,-0.951724 -7.80612787,-2.088815 z"
       id="path4936"
       inkscape:connector-curvature="0" />
    <path
       style="fill:#767676"
       d="M 0.21819212,23.015833 C -5.7945612,19.356008 -4.9410487,17.413568 1.2688122,20.624812 c 2.0749652,1.073006 5.0662227,1.906513 6.6472388,1.852236 1.8416263,-0.06322 2.200814,-0.342955 0.999575,-0.77846 -2.4863292,-0.901411 -10,-8.05174 -10,-9.516426 0,-0.634234 1.93121887,0.31986 4.2915976,2.120209 5.3195474,4.057416 11.2929484,4.352419 13.2715194,0.655425 1.155052,-2.158234 0.921094,-3.128855 -1.332357,-5.5275438 -2.274684,-2.4212895 -2.589084,-3.764013 -1.873331,-8.0005136 0.473056,-2.799998 1.459325,-5.4612453 2.191707,-5.9138828 0.908553,-0.5615159 1.066315,0.8360559 0.496577,4.39900753 -0.798208,4.99171337 -0.64124,5.33632317 3.559628,7.81489637 5.067609,2.9899623 5.27731,4.0080563 1.949663,9.4655553 C 16.180464,25.871436 8.4072523,28.000327 0.21819213,23.015833 Z M 20.651301,5.7884032 c -1.244585,-3.2433385 0.499854,-5.923981 3.571236,-5.487842 2.065916,0.29336175 2.818089,1.2342615 2.818089,3.525171 0,2.2909095 -0.752173,3.2318092 -2.818089,3.525171 -1.690348,0.2400315 -3.119482,-0.3852484 -3.571236,-1.5625 z"
       id="path4934"
       inkscape:connector-curvature="0" />
  </g>
</svg>
