<?xml version="1.0" encoding="UTF-8" standalone="no"?>
<!-- Created with Inkscape (http://www.inkscape.org/) -->

<svg
   xmlns:dc="http://purl.org/dc/elements/1.1/"
   xmlns:cc="http://creativecommons.org/ns#"
   xmlns:rdf="http://www.w3.org/1999/02/22-rdf-syntax-ns#"
   xmlns:svg="http://www.w3.org/2000/svg"
   xmlns="http://www.w3.org/2000/svg"
   xmlns:sodipodi="http://sodipodi.sourceforge.net/DTD/sodipodi-0.dtd"
   xmlns:inkscape="http://www.inkscape.org/namespaces/inkscape"
   id="svg4136"
   version="1.1"
   inkscape:version="0.91 r13725"
   width="33.75"
   height="30"
   viewBox="0 0 33.75 30"
   sodipodi:docname="home.svg">
  <metadata
     id="metadata4142">
    <rdf:RDF>
      <cc:Work
         rdf:about="">
        <dc:format>image/svg+xml</dc:format>
        <dc:type
           rdf:resource="http://purl.org/dc/dcmitype/StillImage" />
        <dc:title></dc:title>
      </cc:Work>
    </rdf:RDF>
  </metadata>
  <defs
     id="defs4140" />
  <sodipodi:namedview
     pagecolor="#ffffff"
     bordercolor="#666666"
     borderopacity="1"
     objecttolerance="10"
     gridtolerance="10"
     guidetolerance="10"
     inkscape:pageopacity="0"
     inkscape:pageshadow="2"
     inkscape:window-width="1858"
     inkscape:window-height="1058"
     id="namedview4138"
     showgrid="false"
     fit-margin-top="0"
     fit-margin-left="0"
     fit-margin-right="0"
     fit-margin-bottom="0"
     inkscape:zoom="3.6791667"
     inkscape:cx="17.687749"
     inkscape:cy="-33.750104"
     inkscape:window-x="54"
     inkscape:window-y="-8"
     inkscape:window-maximized="1"
     inkscape:current-layer="svg4136" />
  <g
     id="g4308"
     transform="translate(0.625,0)">
    <path
       style="fill:#fbfbfb"
       d="m 0,22.77027 0,-7.22973 12.1875,0.229635 c 6.703125,0.126299 12.890625,0.285927 13.75,0.35473 L 27.5,16.25 l 0,4.375 0,4.375 -3.75,0 L 20,25 20,21.352574 20,17.705148 11.247184,17.290074 2.494368,16.875 2.497184,23.4375 2.5,30 1.25,30 0,30 0,22.77027 Z M 30,22.5 30,15 l 1.25,0 1.25,0 0,7.5 0,7.5 -1.25,0 -1.25,0 0,-7.5 z m -21.25,-1.25 0,-2.5 2.5,0 2.5,0 0,2.5 0,2.5 -2.5,0 -2.5,0 0,-2.5 z M 0,6.3937624 0,0 16.25,0 32.5,0 l 0,6.3937624 0,6.3937626 -3.4375,-2.245156 C 27.171875,9.307533 24.034856,6.7115899 22.091346,4.7736064 L 18.557693,1.25 16.25,1.25 l -2.307692,0 -3.533654,3.5236064 C 8.4651443,6.7115899 5.328125,9.307533 3.4375,10.542369 L 0,12.787525 0,6.3937624 Z"
       id="path4312"
       inkscape:connector-curvature="0" />
    <path
       style="fill:#9a9a9a"
       d="M 2.497184,23.4375 2.494368,16.875 11.247184,17.290074 20,17.705147 20,21.352574 20,25 l 3.75,0 3.75,0 0,-4.375 0,-4.375 -1.5625,-0.136559 c -0.859375,-0.07511 -6.71877,-0.215731 -13.020879,-0.3125 L 1.4582425,15.625 0.41662128,14.55086 -0.625,13.47672 2.4293245,11.42586 C 4.109203,10.297887 7.42226,7.546875 9.7916734,5.3125 L 14.099698,1.25 l 2.150302,0 2.150303,0 4.308023,4.0625 c 2.369414,2.234375 5.682472,5.068452 7.362349,6.297949 L 33.125,13.845898 31.5625,14.527115 30,15.208334 30,22.604166 30,30 16.25,30 2.5,30 2.497184,23.4375 Z M 13.75,21.25 l 0,-2.5 -2.5,0 -2.5,0 0,2.5 0,2.5 2.5,0 2.5,0 0,-2.5 z"
       id="path4310"
       inkscape:connector-curvature="0" />
  </g>
</svg>
