<?xml version="1.0" encoding="UTF-8" standalone="no"?>
<!-- Created with Inkscape (http://www.inkscape.org/) -->

<svg
   xmlns:dc="http://purl.org/dc/elements/1.1/"
   xmlns:cc="http://creativecommons.org/ns#"
   xmlns:rdf="http://www.w3.org/1999/02/22-rdf-syntax-ns#"
   xmlns:svg="http://www.w3.org/2000/svg"
   xmlns="http://www.w3.org/2000/svg"
   xmlns:sodipodi="http://sodipodi.sourceforge.net/DTD/sodipodi-0.dtd"
   xmlns:inkscape="http://www.inkscape.org/namespaces/inkscape"
   id="svg4136"
   version="1.1"
   inkscape:version="0.91 r13725"
   width="24.075594"
   height="25.921572"
   viewBox="0 0 24.075594 25.921572"
   sodipodi:docname="kids.svg">
  <metadata
     id="metadata4142">
    <rdf:RDF>
      <cc:Work
         rdf:about="">
        <dc:format>image/svg+xml</dc:format>
        <dc:type
           rdf:resource="http://purl.org/dc/dcmitype/StillImage" />
        <dc:title></dc:title>
      </cc:Work>
    </rdf:RDF>
  </metadata>
  <defs
     id="defs4140" />
  <sodipodi:namedview
     pagecolor="#ffffff"
     bordercolor="#666666"
     borderopacity="1"
     objecttolerance="10"
     gridtolerance="10"
     guidetolerance="10"
     inkscape:pageopacity="0"
     inkscape:pageshadow="2"
     inkscape:window-width="1858"
     inkscape:window-height="1058"
     id="namedview4138"
     showgrid="false"
     fit-margin-top="0"
     fit-margin-left="0"
     fit-margin-right="0"
     fit-margin-bottom="0"
     inkscape:zoom="3.6791667"
     inkscape:cx="13.689307"
     inkscape:cy="-36.825562"
     inkscape:window-x="54"
     inkscape:window-y="-8"
     inkscape:window-maximized="1"
     inkscape:current-layer="svg4136" />
  <g
     id="g4881"
     transform="translate(-2.6394382,-2.0901731)">
    <path
       style="fill:#ebebeb"
       d="m 2.7433055,22.499687 c 0.057127,-3.031632 0.4403269,-5.240225 0.8515554,-4.907985 0.4112285,0.332241 1.9389717,-0.274183 3.3949849,-1.347607 2.244735,-1.654897 2.6430082,-1.724102 2.6190956,-0.455099 -0.038674,2.052381 8.7002516,2.150472 9.7230446,0.109138 0.593107,-1.183749 1.008718,-1.115225 2.830903,0.466744 1.174655,1.019803 2.61545,1.620414 3.201765,1.334691 0.620833,-0.302543 1.023409,1.742278 0.963975,4.89634 l -0.102054,5.415836 -4.702928,0 -4.702928,0 3.065374,-2.50699 c 3.501996,-2.864079 3.788018,-3.965771 1.437686,-5.537635 -1.32965,-0.889249 -2.016822,-0.882468 -3.421343,0.03376 -0.966633,0.630575 -1.521469,1.655931 -1.232968,2.278567 0.638898,1.378855 -1.834953,5.715634 -3.265927,5.725325 -0.566351,0.0038 -0.686597,-0.262058 -0.267215,-0.590874 0.419383,-0.328817 -0.08867,-1.358951 -1.128998,-2.289187 -1.630279,-1.457752 -1.662896,-1.802786 -0.236173,-2.498293 1.426256,-0.695278 1.395084,-1.017276 -0.225245,-2.326726 -1.5549972,-1.256654 -2.1857882,-1.320679 -3.6434222,-0.369803 -2.3632604,1.541654 -2.2485301,2.913782 0.478837,5.726696 l 2.2835362,2.35516 -4.0127115,0 -4.0127113,0 0.1038673,-5.512058 z M 22.011702,13.263265 C 16.957547,9.0482674 11.92989,8.9595198 6.6263334,12.991684 L 2.8686368,15.84857 2.998266,8.9693712 3.1278951,2.0901731 l 5.1346149,0 c 4.667832,0 4.971752,0.1276925 3.343123,1.4046173 C 9.4284829,5.2017823 9.3792535,5.7621199 11.226142,7.8142284 13.277304,10.09331 18.047029,9.3915598 18.570575,6.7336723 18.793789,5.6004767 18.381245,4.0921094 17.653809,3.3817449 16.532991,2.287228 17.12333,2.0901731 21.523116,2.0901731 l 5.191916,0 -0.134747,7.1507786 C 26.506175,13.17388 26.29197,16.39173 26.104274,16.39173 c -0.187695,0 -2.029353,-1.407809 -4.092572,-3.128465 z"
       id="path4885"
       inkscape:connector-curvature="0" />
    <path
       style="fill:#767676"
       d="M 8.3813248,25.656584 C 5.6539577,22.84367 5.5392274,21.471542 7.9024878,19.929888 c 1.457634,-0.950876 2.088425,-0.886851 3.6434222,0.369803 1.620329,1.30945 1.651501,1.631448 0.225245,2.326726 -1.426723,0.695507 -1.394106,1.040541 0.236173,2.498293 1.754066,1.568437 1.531185,2.887035 -0.487991,2.887035 -0.469962,0 -1.8820674,-1.059822 -3.1380122,-2.355161 z m 6.6375512,1.067143 c 0.01335,-0.708411 0.555145,-1.546724 1.20399,-1.862919 0.648846,-0.316194 0.908479,-1.288723 0.576963,-2.161174 -0.865349,-2.277345 2.324047,-4.203774 4.52395,-2.732514 2.406026,1.609112 2.038281,2.929333 -1.571787,5.642776 -3.605649,2.710122 -4.768352,2.983738 -4.733116,1.113831 z M 3.3955703,17.275566 C 2.9437045,16.679256 4.2151895,14.93839 6.3824652,13.186031 11.812591,8.7954813 16.784642,8.9259398 22.440658,13.607372 c 2.421607,2.004341 3.701333,3.713387 3.026732,4.042133 -0.64282,0.313258 -2.129846,-0.264824 -3.304501,-1.284627 -1.822185,-1.581969 -2.237796,-1.650493 -2.830903,-0.466744 -1.022793,2.041334 -9.761719,1.943243 -9.7230446,-0.109138 0.023675,-1.256397 -0.4095133,-1.173882 -2.6991877,0.514146 -1.8993692,1.400282 -2.966255,1.695504 -3.5141834,0.972424 z M 10.966557,7.5715796 C 9.5074433,5.3393631 10.519133,3.2181209 13.386659,2.4972747 16.438172,1.730177 19.002906,3.7115025 18.545865,6.4829002 18.045831,9.5150034 12.73549,10.277772 10.966557,7.5715796 Z"
       id="path4883"
       inkscape:connector-curvature="0" />
  </g>
</svg>
