<?xml version="1.0" encoding="UTF-8" standalone="no"?>
<!-- Created with Inkscape (http://www.inkscape.org/) -->

<svg
   xmlns:dc="http://purl.org/dc/elements/1.1/"
   xmlns:cc="http://creativecommons.org/ns#"
   xmlns:rdf="http://www.w3.org/1999/02/22-rdf-syntax-ns#"
   xmlns:svg="http://www.w3.org/2000/svg"
   xmlns="http://www.w3.org/2000/svg"
   xmlns:sodipodi="http://sodipodi.sourceforge.net/DTD/sodipodi-0.dtd"
   xmlns:inkscape="http://www.inkscape.org/namespaces/inkscape"
   id="svg4136"
   version="1.1"
   inkscape:version="0.91 r13725"
   width="31.717964"
   height="31.9146"
   viewBox="0 0 31.717964 31.9146"
   sodipodi:docname="tv.svg">
  <metadata
     id="metadata4142">
    <rdf:RDF>
      <cc:Work
         rdf:about="">
        <dc:format>image/svg+xml</dc:format>
        <dc:type
           rdf:resource="http://purl.org/dc/dcmitype/StillImage" />
        <dc:title></dc:title>
      </cc:Work>
    </rdf:RDF>
  </metadata>
  <defs
     id="defs4140" />
  <sodipodi:namedview
     pagecolor="#ffffff"
     bordercolor="#666666"
     borderopacity="1"
     objecttolerance="10"
     gridtolerance="10"
     guidetolerance="10"
     inkscape:pageopacity="0"
     inkscape:pageshadow="2"
     inkscape:window-width="1858"
     inkscape:window-height="1058"
     id="namedview4138"
     showgrid="false"
     fit-margin-top="0"
     fit-margin-left="0"
     fit-margin-right="0"
     fit-margin-bottom="0"
     inkscape:zoom="3.4687516"
     inkscape:cx="7.7794982"
     inkscape:cy="-33.065774"
     inkscape:window-x="54"
     inkscape:window-y="-8"
     inkscape:window-maximized="1"
     inkscape:current-layer="svg4136" />
  <path
     style="fill:#000000"
     d=""
     id="path4146"
     inkscape:connector-curvature="0" />
  <path
     style="fill:#767676"
     d="M 0.38486408,30.452182 C 0.02224007,29.507199 -0.10740793,24.567923 0.09675707,19.476012 L 0.46796508,10.217993 7.1609851,9.8356419 C 13.710002,9.4615169 13.806538,9.4008399 11.647816,7.015478 8.7269831,3.787996 10.369305,2.30062 13.612767,5.235912 c 2.479849,2.244235 2.629513,2.202776 6.863937,-1.901389 5.61914,-5.4462862 7.359699,-3.78432004 1.917342,1.830768 l -4.153037,4.2848469 6.738477,0.383927 6.738478,0.3839281 0,10.625 0,10.625 -15.336891,0.351169 C 4.2799871,32.096242 0.90507708,31.807832 0.38486408,30.452182 Z M 21.628679,27.628707 c 2.552528,-2.552528 2.552528,-11.0189 0,-13.571428 -2.681698,-2.681699 -14.6397299,-2.681699 -17.3214279,0 -2.552529,2.552528 -2.552529,11.0189 0,13.571428 2.681698,2.681699 14.6397299,2.681699 17.3214279,0 z m 7.523303,-5.642476 c -0.40247,-0.65121 -1.264571,-0.854724 -1.91578,-0.452255 -0.65121,0.40247 -0.854724,1.264571 -0.452255,1.91578 0.40247,0.65121 1.264571,0.854723 1.91578,0.452255 0.65121,-0.40247 0.854724,-1.264572 0.452255,-1.91578 z m 0,-5.000001 c -0.40247,-0.65121 -1.264571,-0.854723 -1.91578,-0.452255 -0.65121,0.40247 -0.854724,1.264572 -0.452255,1.91578 0.40247,0.651211 1.264571,0.854724 1.91578,0.452256 0.65121,-0.402471 0.854724,-1.264572 0.452255,-1.915781 z"
     id="path4299"
     inkscape:connector-curvature="0" />
</svg>
