<?xml version="1.0" encoding="UTF-8" standalone="no"?>
<!-- Created with Inkscape (http://www.inkscape.org/) -->

<svg
   xmlns:dc="http://purl.org/dc/elements/1.1/"
   xmlns:cc="http://creativecommons.org/ns#"
   xmlns:rdf="http://www.w3.org/1999/02/22-rdf-syntax-ns#"
   xmlns:svg="http://www.w3.org/2000/svg"
   xmlns="http://www.w3.org/2000/svg"
   xmlns:sodipodi="http://sodipodi.sourceforge.net/DTD/sodipodi-0.dtd"
   xmlns:inkscape="http://www.inkscape.org/namespaces/inkscape"
   id="svg4136"
   version="1.1"
   inkscape:version="0.91 r13725"
   width="32.259846"
   height="28.540283"
   viewBox="0 0 32.259846 28.540283"
   sodipodi:docname="environment.svg">
  <metadata
     id="metadata4142">
    <rdf:RDF>
      <cc:Work
         rdf:about="">
        <dc:format>image/svg+xml</dc:format>
        <dc:type
           rdf:resource="http://purl.org/dc/dcmitype/StillImage" />
        <dc:title></dc:title>
      </cc:Work>
    </rdf:RDF>
  </metadata>
  <defs
     id="defs4140" />
  <sodipodi:namedview
     pagecolor="#ffffff"
     bordercolor="#666666"
     borderopacity="1"
     objecttolerance="10"
     gridtolerance="10"
     guidetolerance="10"
     inkscape:pageopacity="0"
     inkscape:pageshadow="2"
     inkscape:window-width="1858"
     inkscape:window-height="1058"
     id="namedview4138"
     showgrid="false"
     fit-margin-top="0"
     fit-margin-left="0"
     fit-margin-right="0"
     fit-margin-bottom="0"
     inkscape:zoom="3.4687516"
     inkscape:cx="8.5896693"
     inkscape:cy="-32.811306"
     inkscape:window-x="54"
     inkscape:window-y="-8"
     inkscape:window-maximized="1"
     inkscape:current-layer="svg4136" />
  <path
     style="fill:#000000"
     d=""
     id="path4146"
     inkscape:connector-curvature="0" />
  <path
     style="fill:#767676"
     d="m 18.08429,26.173932 -1.266434,-2.366352 1.45048,-2.322588 1.45048,-2.322589 3.072335,0.587315 3.072335,0.587314 -1.962691,-3.795428 -1.962691,-3.795427 2.979657,-1.952346 2.979658,-1.952346 2.181212,3.328951 2.181213,3.328951 -3.004921,5.624031 -3.004923,5.62403 -3.449639,0.896418 -3.449638,0.896417 -1.266433,-2.366351 z M 3.72301,21.941711 0.46563601,16.383421 1.785331,13.917548 3.105026,11.451675 1.552513,10.824522 0,10.197368 l 4.018521,-0.09868 4.01852,-0.09868 1.3936099,2.603984 1.3936101,2.603984 -2.168365,2.396016 -2.168365,2.396016 4.568735,0 4.568734,0 0,3.75 0,3.75 -4.322308,0 -4.322307,0 L 3.72301,21.94172 Z M 7.658665,8.395591 5.464505,6.791183 8.135478,3.395591 10.806451,0 16.687924,0 22.569398,0 24.793899,2.598028 27.0184,5.196056 25.543644,6.973028 24.068889,8.75 l -2.826155,0 -2.826155,0 L 17.613085,5.9375 16.809593,3.125 14.927375,6.5625 13.045157,10 11.448991,10 C 10.571099,10 8.865453,9.278016 7.658665,8.395591 Z"
     id="path4225"
     inkscape:connector-curvature="0" />
</svg>
