<?xml version="1.0" encoding="UTF-8" standalone="no"?>
<!-- Created with Inkscape (http://www.inkscape.org/) -->

<svg
   xmlns:dc="http://purl.org/dc/elements/1.1/"
   xmlns:cc="http://creativecommons.org/ns#"
   xmlns:rdf="http://www.w3.org/1999/02/22-rdf-syntax-ns#"
   xmlns:svg="http://www.w3.org/2000/svg"
   xmlns="http://www.w3.org/2000/svg"
   xmlns:sodipodi="http://sodipodi.sourceforge.net/DTD/sodipodi-0.dtd"
   xmlns:inkscape="http://www.inkscape.org/namespaces/inkscape"
   width="68.345711"
   height="77.861679"
   id="svg2"
   version="1.1"
   inkscape:version="0.48.4 r9939"
   sodipodi:docname="New document 1">
  <defs
     id="defs4" />
  <sodipodi:namedview
     id="base"
     pagecolor="#ffffff"
     bordercolor="#666666"
     borderopacity="1.0"
     inkscape:pageopacity="0.0"
     inkscape:pageshadow="2"
     inkscape:zoom="0.35"
     inkscape:cx="371.21429"
     inkscape:cy="-454.07141"
     inkscape:document-units="px"
     inkscape:current-layer="layer1"
     showgrid="false"
     fit-margin-top="0"
     fit-margin-left="0"
     fit-margin-right="0"
     fit-margin-bottom="0"
     inkscape:window-width="1366"
     inkscape:window-height="692"
     inkscape:window-x="0"
     inkscape:window-y="24"
     inkscape:window-maximized="1" />
  <metadata
     id="metadata7">
    <rdf:RDF>
      <cc:Work
         rdf:about="">
        <dc:format>image/svg+xml</dc:format>
        <dc:type
           rdf:resource="http://purl.org/dc/dcmitype/StillImage" />
        <dc:title></dc:title>
      </cc:Work>
    </rdf:RDF>
  </metadata>
  <g
     inkscape:label="Layer 1"
     inkscape:groupmode="layer"
     id="layer1"
     transform="translate(-3.7857099,-0.42909044)">
    <g
       id="g3006"
       transform="translate(4.2857143e-6,-17.142857)">
      <path
         style="fill:#cbcbcb"
         d="M 18.748562,87.455089 C 9.3382263,79.524524 9.3193482,79.440088 15.608744,73.411986 c 3.480092,-3.335512 6.680003,-6.537016 7.110916,-7.114458 0.430911,-0.577439 3.151565,0.536939 6.045897,2.476393 3.299526,2.210973 4.560582,5.784079 3.380826,9.579312 -1.034878,3.329162 -0.385308,6.799678 1.443488,7.712258 4.835812,2.413092 4.075221,9.368135 -1.024483,9.368135 -2.392263,0 -8.609835,-3.590343 -13.816826,-7.978537 z m 21.479319,4.501197 c 0,-1.912537 1.78898,-4.921773 3.97551,-6.687192 3.066646,-2.476029 3.076985,-3.935327 0.04522,-6.383181 -3.031754,-2.447857 -2.681605,-4.287368 1.531611,-8.046286 5.103015,-4.552777 5.861906,-4.580662 11.550003,-0.424412 8.177836,5.975485 7.666748,12.188945 -1.579486,19.202389 -8.606413,6.528136 -15.52286,7.570171 -15.52286,2.338682 z M 3.7857056,62.522389 c 0,-4.546499 20.5277414,-20.586298 26.3463504,-20.586298 3.427821,0 3.193425,-1.162926 -0.98595,-4.891656 -6.474368,-5.776262 -7.016792,-11.524016 -1.50734,-15.972383 12.867398,-10.389219 33.083701,4.618811 20.883606,15.503419 -4.779335,4.264 -5.019814,5.36062 -1.175525,5.36062 2.658129,0 9.893123,4.215274 16.077761,9.367276 8.609911,7.172329 10.333106,10.103379 7.354014,12.508717 -2.979091,2.405337 -5.461694,1.993585 -10.594909,-1.757218 -3.775788,-2.75894 -6.704132,-3.549198 -6.704132,-1.809212 0,1.87832 -5.844321,3.089451 -14.908162,3.089451 -9.063841,0 -14.908163,-1.211131 -14.908163,-3.089451 0,-1.848452 -2.433624,-1.311216 -6.058481,1.337439 -7.26184,5.306174 -13.8190694,5.751875 -13.8190694,0.939296 z"
         id="path3012"
         inkscape:connector-curvature="0" />
      <path
         style="fill:#9e9e9e"
         d="m 20.92782,89.242755 c -8.489745,-7.296467 -9.171998,-13.233921 -2.067681,-17.994436 4.246513,-2.845537 6.110621,-2.653941 10.767006,1.10665 4.852021,3.918587 4.961861,4.882179 0.793694,6.962829 -4.169535,2.081335 -4.054151,3.113865 0.835459,7.476249 5.139309,4.585156 4.69731,8.639579 -0.941857,8.639579 -1.200805,0 -5.424784,-2.785892 -9.386621,-6.190871 z m 19.300061,2.336419 c 0,-2.119949 1.551459,-4.628636 3.447685,-5.574863 1.896229,-0.946227 2.607978,-3.85656 1.581663,-6.467408 -2.678963,-6.815054 6.621245,-12.579975 13.19174,-8.177168 7.186129,4.815337 6.174825,8.766157 -4.322436,16.886254 -10.484411,8.110157 -13.898652,8.928963 -13.898652,3.333185 z M 5.4192347,63.305144 c -1.3659435,-1.784483 2.2876066,-6.9941 8.5826973,-12.23811 15.772395,-13.138909 30.444956,-12.748507 47.387851,1.260881 7.473919,6.17988 11.152339,11.098157 9.0755,12.134509 -1.920781,0.958478 -6.528338,-0.708607 -10.239013,-3.70463 -5.207146,-4.204283 -6.746689,-4.531738 -6.746689,-1.435004 0,2.972085 -3.86508,4.012315 -14.908162,4.012315 -11.732906,0 -14.908163,-0.953885 -14.908163,-4.478584 0,-3.759823 -1.273124,-3.512894 -7.932811,1.538603 -5.524455,4.190406 -8.6548792,5.073869 -10.3112103,2.91002 z M 27.247131,35.512497 C 18.05252,26.56738 34.444915,13.332056 45.523744,20.755844 c 2.737845,1.834597 4.529826,6.447899 3.982176,10.251782 -0.746624,5.185918 -3.138679,7.117277 -9.561612,7.720106 -4.711236,0.442175 -10.424966,-1.00468 -12.697177,-3.215235 z"
         id="path3010"
         inkscape:connector-curvature="0" />
      <path
         style="fill:#767676"
         d="M 22.513753,87.836238 C 12.455668,79.359778 11.689149,76.053513 18.693868,71.359735 c 7.031818,-4.711934 16.886056,1.53994 11.178866,7.092265 -2.936316,2.85664 -2.515976,4.862979 1.831424,8.741615 9.13236,8.147656 0.436493,8.755695 -9.190405,0.642623 z m 20.0217,5.894035 c -1.277116,-1.031152 0.123207,-4.05639 3.11181,-6.722752 4.179447,-3.728792 4.554076,-5.703822 1.62284,-8.555521 -2.907082,-2.828198 -2.741913,-4.423974 0.696364,-6.72792 3.463742,-2.321012 5.920896,-1.759213 10.612359,2.426386 5.97369,5.329572 5.891785,5.61886 -3.808175,13.450671 -5.452243,4.402176 -10.958082,7.160287 -12.235198,6.129136 z M 15.057445,52.903086 C 31.787782,39.069453 44.945589,38.669528 60.37843,51.525578 c 11.688175,9.73662 11.075314,16.023993 -0.736705,7.557907 -5.125082,-3.673326 -7.537518,-4.170187 -8.578701,-1.766853 -0.830957,1.918085 -7.063911,3.343596 -14.619664,3.343596 -7.937145,0 -12.357499,-1.062953 -11.123642,-2.674877 3.239097,-4.23159 -3.711679,-3.109172 -8.282312,1.337439 -2.268324,2.206773 -6.480465,4.012315 -9.3603138,4.012315 -3.5112354,0 -1.080027,-3.436478 7.3803528,-10.432019 z M 31.117337,37.489695 C 24.992489,35.494246 26.092323,23.877152 32.68825,20.8968 c 12.159826,-5.494384 23.422231,7.145629 13.502896,15.154562 -4.142289,3.34451 -8.072024,3.719483 -15.073809,1.438333 z"
         id="path3008"
         inkscape:connector-curvature="0" />
    </g>
  </g>
</svg>
