<?xml version="1.0" encoding="UTF-8" standalone="no"?>
<!-- Created with Inkscape (http://www.inkscape.org/) -->

<svg
   xmlns:dc="http://purl.org/dc/elements/1.1/"
   xmlns:cc="http://creativecommons.org/ns#"
   xmlns:rdf="http://www.w3.org/1999/02/22-rdf-syntax-ns#"
   xmlns:svg="http://www.w3.org/2000/svg"
   xmlns="http://www.w3.org/2000/svg"
   xmlns:sodipodi="http://sodipodi.sourceforge.net/DTD/sodipodi-0.dtd"
   xmlns:inkscape="http://www.inkscape.org/namespaces/inkscape"
   id="svg4136"
   version="1.1"
   inkscape:version="0.91 r13725"
   width="31.875"
   height="22.260782"
   viewBox="0 0 31.875 22.260782"
   sodipodi:docname="photografi.svg">
  <metadata
     id="metadata4142">
    <rdf:RDF>
      <cc:Work
         rdf:about="">
        <dc:format>image/svg+xml</dc:format>
        <dc:type
           rdf:resource="http://purl.org/dc/dcmitype/StillImage" />
        <dc:title></dc:title>
      </cc:Work>
    </rdf:RDF>
  </metadata>
  <defs
     id="defs4140" />
  <sodipodi:namedview
     pagecolor="#ffffff"
     bordercolor="#666666"
     borderopacity="1"
     objecttolerance="10"
     gridtolerance="10"
     guidetolerance="10"
     inkscape:pageopacity="0"
     inkscape:pageshadow="2"
     inkscape:window-width="1858"
     inkscape:window-height="1058"
     id="namedview4138"
     showgrid="false"
     fit-margin-top="0"
     fit-margin-left="0"
     fit-margin-right="0"
     fit-margin-bottom="0"
     inkscape:zoom="3.4687516"
     inkscape:cx="9.3486684"
     inkscape:cy="-37.366231"
     inkscape:window-x="54"
     inkscape:window-y="-8"
     inkscape:window-maximized="1"
     inkscape:current-layer="svg4136" />
  <path
     style="fill:#767676"
     d="M 0.869842,21.672882 C 0.391429,21.19447 0,17.084301 0,12.539175 0,5.8065109 0.465869,3.8764199 2.514288,2.1225079 5.248625,-0.21870308 8.75,-0.75196808 8.75,1.1727999 c 0,0.661701 5.203125,1.364826 11.5625,1.5625 l 11.5625,0.359407 0,9.3750001 0,9.375 -15.067659,0.349009 C 8.52013,22.38567 1.348255,22.151296 0.869842,21.672882 Z M 26.25,17.469707 c 1.375,-1.375 2.5,-3.625 2.5,-5 0,-3.2194541 -4.280545,-7.5000001 -7.5,-7.5000001 -1.375,0 -3.625,1.125 -5,2.5 -1.375,1.375 -2.5,3.6250001 -2.5,5.0000001 0,1.375 1.125,3.625 2.5,5 1.375,1.375 3.625,2.5 5,2.5 1.375,0 3.625,-1.125 5,-2.5 z m -8.700164,-1.814951 c -3.32057,-4.001043 1.556543,-10.1472151 5.887664,-7.4196761 4.327913,2.7255171 2.786034,9.2346271 -2.1875,9.2346271 -1.206639,0 -2.871712,-0.816727 -3.700164,-1.814951 z M 8.75,6.2197069 c 0,-0.6875 -1.125,-1.25 -2.5,-1.25 -1.375,0 -2.5,0.5625 -2.5,1.25 0,0.6875 1.125,1.25 2.5,1.25 1.375,0 2.5,-0.5625 2.5,-1.25 z"
     id="path4166"
     inkscape:connector-curvature="0" />
  <path
     style="fill:#000000"
     d=""
     id="path4146"
     inkscape:connector-curvature="0" />
</svg>
